<?xml version="1.0" encoding="utf-8"?><svg viewBox="0 0 512 512" xmlns="http://www.w3.org/2000/svg" xmlns:xlink="http://www.w3.org/1999/xlink"><style>:root>svg{display:none}:root>svg:target{display:block}</style><svg fill="none" viewBox="0 0 24 24" id="Circle" xmlns="http://www.w3.org/2000/svg"><path d="M12 0a12 12 0 1 0 12 12A12.014 12.014 0 0 0 12 0Zm0 20.571A8.572 8.572 0 1 1 20.571 12 8.582 8.582 0 0 1 12 20.571Z" fill="#CCC"/><circle cx="12" cy="12" r="4" fill="#CCC"/></svg><svg fill="none" viewBox="0 0 147 39" id="Logo" xmlns="http://www.w3.org/2000/svg"><path d="M39.448 30a.555.555 0 0 1-.408-.168.555.555 0 0 1-.168-.408V13.8a.64.64 0 0 1 .144-.432.585.585 0 0 1 .432-.168h10.416c.176 0 .32.056.432.168a.585.585 0 0 1 .168.432v1.68c0 .176-.056.32-.168.432a.64.64 0 0 1-.432.144H42.16v4.56h7.224c.176 0 .32.056.432.168a.585.585 0 0 1 .168.432v1.68c0 .176-.056.32-.168.432a.64.64 0 0 1-.432.144H42.16v5.952c0 .176-.056.32-.168.432a.64.64 0 0 1-.432.144h-2.112Zm17.995.24c-1.472 0-2.632-.48-3.48-1.44-.848-.976-1.272-2.296-1.272-3.96v-6.744c0-.16.056-.296.168-.408a.555.555 0 0 1 .408-.168h2.112c.176 0 .312.056.408.168a.508.508 0 0 1 .168.408v6.6c0 1.984.872 2.976 2.616 2.976.832 0 1.488-.264 1.968-.792.496-.528.744-1.256.744-2.184v-6.6c0-.16.056-.296.168-.408a.555.555 0 0 1 .408-.168h2.112c.176 0 .312.056.408.168a.508.508 0 0 1 .168.408v11.328c0 .16-.056.296-.168.408a.508.508 0 0 1-.408.168h-1.944a.555.555 0 0 1-.408-.168.555.555 0 0 1-.168-.408v-.984c-.896 1.2-2.232 1.8-4.008 1.8Zm10.85-.24a.555.555 0 0 1-.408-.168.555.555 0 0 1-.168-.408V18.12c0-.16.056-.296.168-.408a.523.523 0 0 1 .408-.192h1.944c.176 0 .32.056.432.168a.585.585 0 0 1 .168.432v.984a3.807 3.807 0 0 1 1.44-1.176c.592-.272 1.264-.408 2.016-.408h.984c.176 0 .312.056.408.168a.508.508 0 0 1 .168.408v1.728c0 .16-.056.296-.168.408a.508.508 0 0 1-.408.168h-1.872c-.752 0-1.344.216-1.776.648-.432.432-.648 1.024-.648 1.776v6.6c0 .16-.056.296-.168.408a.585.585 0 0 1-.432.168h-2.088ZM78.3 30a.555.555 0 0 1-.408-.168.555.555 0 0 1-.168-.408V18.096c0-.16.056-.296.168-.408a.555.555 0 0 1 .408-.168h1.968c.16 0 .296.056.408.168a.555.555 0 0 1 .168.408v.984c.944-1.2 2.28-1.8 4.008-1.8 1.472 0 2.64.488 3.504 1.464.864.96 1.296 2.272 1.296 3.936v6.744c0 .16-.056.296-.168.408a.508.508 0 0 1-.408.168h-2.112a.555.555 0 0 1-.408-.168.555.555 0 0 1-.168-.408v-6.6c0-.944-.232-1.672-.696-2.184-.448-.528-1.104-.792-1.968-.792-.848 0-1.52.264-2.016.792-.48.528-.72 1.256-.72 2.184v6.6c0 .16-.056.296-.168.408a.508.508 0 0 1-.408.168H78.3Zm14.88-14.544a.555.555 0 0 1-.408-.168.555.555 0 0 1-.168-.408v-1.728c0-.16.056-.296.168-.408a.555.555 0 0 1 .408-.168h2.184c.16 0 .296.056.408.168a.523.523 0 0 1 .192.408v1.728c0 .16-.056.296-.168.408a.585.585 0 0 1-.432.168h-2.184ZM93.277 30a.555.555 0 0 1-.408-.168.555.555 0 0 1-.168-.408V18.096c0-.16.056-.296.168-.408a.555.555 0 0 1 .408-.168h1.992c.176 0 .312.056.408.168a.508.508 0 0 1 .168.408v11.328c0 .16-.056.296-.168.408a.508.508 0 0 1-.408.168h-1.992Zm6.352 0a.555.555 0 0 1-.408-.168.555.555 0 0 1-.168-.408V13.536c0-.176.056-.312.168-.408a.555.555 0 0 1 .408-.168h1.944c.176 0 .312.056.408.168a.508.508 0 0 1 .168.408v8.208l4.032-3.816a3 3 0 0 0 .24-.192.899.899 0 0 1 .288-.168c.096-.032.216-.048.36-.048h2.232c.16 0 .288.048.384.144a.519.519 0 0 1 .144.384c0 .144-.08.288-.24.432l-4.944 4.632 5.544 5.952c.16.16.24.296.24.408a.48.48 0 0 1-.168.384.488.488 0 0 1-.36.144h-2.28c-.224 0-.392-.024-.504-.072a2.812 2.812 0 0 1-.384-.336l-4.584-4.824v4.656c0 .16-.056.296-.168.408a.508.508 0 0 1-.408.168h-1.944Zm13.076-14.544a.555.555 0 0 1-.408-.168.555.555 0 0 1-.168-.408v-1.728c0-.16.056-.296.168-.408a.555.555 0 0 1 .408-.168h2.184c.16 0 .296.056.408.168a.523.523 0 0 1 .192.408v1.728c0 .16-.056.296-.168.408a.585.585 0 0 1-.432.168h-2.184ZM112.801 30a.555.555 0 0 1-.408-.168.555.555 0 0 1-.168-.408V18.096c0-.16.056-.296.168-.408a.555.555 0 0 1 .408-.168h1.992c.176 0 .312.056.408.168a.508.508 0 0 1 .168.408v11.328c0 .16-.056.296-.168.408a.508.508 0 0 1-.408.168h-1.992Zm6.328 0a.555.555 0 0 1-.408-.168.555.555 0 0 1-.168-.408V18.096c0-.16.056-.296.168-.408a.555.555 0 0 1 .408-.168h1.968c.16 0 .296.056.408.168a.555.555 0 0 1 .168.408v.984c.944-1.2 2.28-1.8 4.008-1.8 1.472 0 2.64.488 3.504 1.464.864.96 1.296 2.272 1.296 3.936v6.744c0 .16-.056.296-.168.408a.508.508 0 0 1-.408.168h-2.112a.555.555 0 0 1-.408-.168.555.555 0 0 1-.168-.408v-6.6c0-.944-.232-1.672-.696-2.184-.448-.528-1.104-.792-1.968-.792-.848 0-1.52.264-2.016.792-.48.528-.72 1.256-.72 2.184v6.6c0 .16-.056.296-.168.408a.508.508 0 0 1-.408.168h-2.112Zm20.04 5.28c-1.424 0-2.576-.24-3.456-.72-.88-.464-1.504-1-1.872-1.608-.368-.608-.552-1.128-.552-1.56 0-.144.056-.272.168-.384a.611.611 0 0 1 .408-.168h2.088c.144 0 .264.032.36.096.112.08.2.216.264.408.16.432.416.792.768 1.08.368.304.936.456 1.704.456.96 0 1.664-.216 2.112-.648.464-.432.696-1.176.696-2.232v-1.632c-.88 1.04-2.112 1.56-3.696 1.56-1.664 0-2.92-.512-3.768-1.536-.832-1.024-1.28-2.4-1.344-4.128l-.024-.648.024-.648c.064-1.696.52-3.064 1.368-4.104.848-1.056 2.096-1.584 3.744-1.584.848 0 1.592.16 2.232.48.64.32 1.176.76 1.608 1.32v-.96c0-.176.056-.32.168-.432a.555.555 0 0 1 .408-.168h1.944c.16 0 .296.064.408.192a.555.555 0 0 1 .168.408l.024 11.568c0 1.776-.496 3.152-1.488 4.128s-2.48 1.464-4.464 1.464Zm-.12-7.896c.912 0 1.592-.288 2.04-.864.464-.576.72-1.28.768-2.112.016-.128.024-.392.024-.792a7.7 7.7 0 0 0-.024-.768c-.048-.848-.304-1.56-.768-2.136-.448-.576-1.128-.864-2.04-.864-1.728 0-2.64 1.064-2.736 3.192l-.024.576c0 1.136.2 2.048.6 2.736.416.688 1.136 1.032 2.16 1.032Z" fill="#555"/><path d="M5.97 6.946c.645 0 1.171-.526 1.171-1.171S6.615 4.603 5.97 4.603a1.172 1.172 0 1 0 0 2.343ZM9.596 24.783v2.25a10.674 10.674 0 0 1 6.298-2.048c2.292 0 4.473.725 6.297 2.048v-2.25c0-1.889.948-3.558 2.387-4.563a4.498 4.498 0 0 0-4.485-4.265h-8.399A4.498 4.498 0 0 0 7.21 20.22a5.565 5.565 0 0 1 2.386 4.563ZM22.822 12.53H8.915v1.897h13.907V12.53Z" fill="#85B839"/><path d="M22.191 29.026a9.157 9.157 0 0 0-6.297-2.498c-2.361 0-4.582.89-6.298 2.498v2.055h12.595v-2.055ZM25.551 6.946c.645 0 1.172-.526 1.172-1.171s-.527-1.172-1.172-1.172a1.172 1.172 0 0 0 0 2.343ZM15.912 3.778a1.89 1.89 0 0 0 1.889-1.89A1.89 1.89 0 0 0 15.91 0a1.89 1.89 0 0 0-1.888 1.889 1.89 1.89 0 0 0 1.889 1.889Z" fill="#85B839"/><path d="M27.76 20.757a4.03 4.03 0 0 0-4.026 4.026v7.837H8.054v-7.837a4.03 4.03 0 0 0-4.027-4.026A4.03 4.03 0 0 0 0 24.783a4.03 4.03 0 0 0 4.027 4.027h.771v7.069h22.191v-7.07h.772a4.03 4.03 0 0 0 4.026-4.026 4.03 4.03 0 0 0-4.026-4.026ZM4.028 26.034a1.252 1.252 0 1 1 .001-2.5 1.252 1.252 0 0 1-.001 2.5Zm23.734 0a1.25 1.25 0 0 1-1.251-1.25 1.25 1.25 0 1 1 2.502 0 1.25 1.25 0 0 1-1.251 1.25ZM8.698 10.988h14.337a7.29 7.29 0 0 0 1.662-2.928 6.524 6.524 0 0 1-3.032.757 6.523 6.523 0 0 1-5.8-3.547c-1.085 2.102-3.277 3.547-5.8 3.547-1.071 0-2.106-.26-3.028-.742a7.392 7.392 0 0 0 1.661 2.913ZM9.596 37.422H8.053v1.543h1.543v-1.543ZM23.734 37.422h-1.543v1.543h1.543v-1.543Z" fill="#85B839"/></svg><svg fill="none" viewBox="0 0 22 24" id="account" xmlns="http://www.w3.org/2000/svg"><path d="M14.618 11.128a6.15 6.15 0 0 0 2.536-4.974A6.16 6.16 0 0 0 11 0a6.16 6.16 0 0 0-6.154 6.154c0 2.042 1 3.854 2.536 4.974C3.564 12.59.846 16.291.846 20.615A3.388 3.388 0 0 0 4.231 24h13.538a3.388 3.388 0 0 0 3.385-3.385c0-4.324-2.718-8.026-6.536-9.487ZM6.692 6.154A4.313 4.313 0 0 1 11 1.846a4.313 4.313 0 0 1 4.308 4.308A4.313 4.313 0 0 1 11 10.462a4.313 4.313 0 0 1-4.308-4.308Zm11.077 16H4.231a1.54 1.54 0 0 1-1.539-1.539c0-4.58 3.727-8.307 8.308-8.307 4.581 0 8.308 3.726 8.308 8.307a1.54 1.54 0 0 1-1.539 1.539Z" fill="#555"/></svg><svg fill="none" viewBox="0 0 12 7" id="arrow_down" xmlns="http://www.w3.org/2000/svg"><path d="M.705.705a.998.998 0 0 1 1.41-.001l3.179 3.171a1 1 0 0 0 1.412 0L9.885.704a.998.998 0 0 1 1.41 1.411L6.707 6.703a1 1 0 0 1-1.414 0L.705 2.115a.998.998 0 0 1 0-1.41Z" fill="#fff"/></svg><svg fill="none" viewBox="0 0 20 16" id="eye" xmlns="http://www.w3.org/2000/svg"><path d="M18.9 5.695C17.643 3.648 14.788.215 9.776.215S1.91 3.647.655 5.694a3.98 3.98 0 0 0 0 4.183c1.255 2.047 4.11 5.48 9.122 5.48s7.867-3.433 9.122-5.48a3.981 3.981 0 0 0 0-4.183ZM17.52 9.03C16.44 10.785 14 13.738 9.776 13.738S3.113 10.785 2.035 9.03a2.367 2.367 0 0 1 0-2.486c1.078-1.756 3.518-4.71 7.742-4.71s6.664 2.951 7.742 4.71a2.366 2.366 0 0 1 0 2.486Z" fill="#757575"/><path d="M9.777 3.735a4.043 4.043 0 0 0-3.739 2.501 4.056 4.056 0 0 0 .877 4.415 4.045 4.045 0 0 0 6.909-2.865 4.059 4.059 0 0 0-1.187-2.863 4.05 4.05 0 0 0-2.86-1.188Zm0 6.482a2.426 2.426 0 0 1-2.243-1.5 2.433 2.433 0 0 1 1.77-3.315 2.425 2.425 0 0 1 2.492 1.034 2.433 2.433 0 0 1-2.02 3.781Z" fill="#757575"/></svg><svg version="1.1" id="free-delivery_1" x="0" y="0" style="enable-background:new 0 0 512 512" xml:space="preserve" viewBox="0 0 512 512" xmlns="http://www.w3.org/2000/svg"><style>.est0{fill:#7fbb53}</style><path class="est0" d="m476.2 286.9-13.3-53c3.6-.8 6.3-4 6.3-7.8v-8.6c0-18.6-15.1-33.7-33.7-33.7h-60.4v-17.6c0-9.1-7.4-16.6-16.6-16.6H246.3l68.2-27.3c4.1-1.6 6.1-6.3 4.5-10.4-1.6-4.1-6.3-6.1-10.4-4.5l-55.9 22.3c17-10.9 33.9-22.9 40.3-31.4 12.5-16.4 9.3-39.8-7-52.3-16.4-12.5-39.8-9.3-52.3 7-9.1 12-21.2 45.6-28.9 69.3C197 98.6 185 65 175.9 53c-12.5-16.4-36-19.5-52.3-7s-19.5 36-7 52.3c6.4 8.4 23.3 20.4 40.3 31.4L101 107.4c-4.1-1.6-8.8.4-10.4 4.5-1.6 4.1.4 8.8 4.5 10.4l68.2 27.3H50.8c-9.1 0-16.6 7.4-16.6 16.6v145.4c0 4.4 3.6 8 8 8s8-3.6 8-8V166.2c0-.3.2-.5.5-.5h307.8c.3 0 .5.2.5.5v145.4c0 4.4 3.6 8 8 8s8-3.6 8-8v-9.1h94.6c11.6 0 21.5 7.6 24.9 18.2h-24.9c-4.4 0-8 3.6-8 8v17.1c0 13.9 11.3 25.1 25.1 25.1h9.1v35.3h-21c-6.9-19.9-25.8-34.2-48-34.2s-41.1 14.3-48 34.2h-3.9v-60.4c0-4.4-3.6-8-8-8s-8 3.6-8 8v60.4H192.8c-6.9-19.9-25.8-34.2-48-34.2s-41.1 14.3-48 34.2h-46c-.3 0-.5-.2-.5-.5V388H85c4.4 0 8-3.6 8-8s-3.6-8-8-8H8c-4.4 0-8 3.6-8 8s3.6 8 8 8h26.2v17.6c0 9.1 7.4 16.6 16.6 16.6h43.3v.5c0 28 22.8 50.8 50.8 50.8s50.8-22.8 50.8-50.8v-.5h180.7v.5c0 28 22.8 50.8 50.8 50.8s50.8-22.8 50.8-50.8v-.5h26c4.4 0 8-3.6 8-8v-85.5c0-21.1-15.6-38.7-35.8-41.8zM172.9 121.1c-31.6-19.7-41-28.7-43.8-32.3-7.1-9.3-5.3-22.7 4-29.9 3.9-2.9 8.4-4.4 12.9-4.4 6.4 0 12.8 2.9 17 8.4 7.8 10.2 19.9 44.4 27.9 69.1-5.4-3.2-11.6-7-18-10.9zm45.6 10.8c8-24.7 20.2-58.9 27.9-69.1 7.1-9.3 20.5-11.1 29.9-4 9.3 7.1 11.1 20.5 4 29.9-2.8 3.6-12.2 12.7-43.8 32.3-6.4 4-12.6 7.8-18 10.9zm156.7 68h60.4c9.7 0 17.6 7.9 17.6 17.6v.5h-78v-18.1zm0 86.6v-52.4h71.2l13.1 52.4h-84.3zm-230.4 171c-19.2 0-34.7-15.6-34.7-34.7s15.6-34.7 34.7-34.7 34.7 15.6 34.7 34.7-15.5 34.7-34.7 34.7zm282.2 0c-19.2 0-34.7-15.6-34.7-34.7S407.9 388 427 388c19.2 0 34.7 15.6 34.7 34.7s-15.5 34.8-34.7 34.8zm69-102.6h-9.1c-5 0-9.1-4.1-9.1-9.1v-9.1H496v18.2z"/><path class="est0" d="M144.8 406.2c-9.1 0-16.6 7.4-16.6 16.6s7.4 16.6 16.6 16.6c9.1 0 16.6-7.4 16.6-16.6s-7.4-16.6-16.6-16.6zM427 406.2c-9.1 0-16.6 7.4-16.6 16.6s7.4 16.6 16.6 16.6 16.6-7.4 16.6-16.6-7.4-16.6-16.6-16.6zM333 372H213.2c-4.4 0-8 3.6-8 8s3.6 8 8 8H333c4.4 0 8-3.6 8-8s-3.6-8-8-8zM127.7 337.8H25.1c-4.4 0-8 3.6-8 8s3.6 8 8 8h102.6c4.4 0 8-3.6 8-8s-3.5-8-8-8zM127.7 218H93.5c-4.4 0-8 3.6-8 8v68.4c0 4.4 3.6 8 8 8s8-3.6 8-8v-26.2h17.6c4.4 0 8-3.6 8-8s-3.6-8-8-8h-17.6V234h26.2c4.4 0 8-3.6 8-8s-3.5-8-8-8zM190.8 272c8-5.3 13.3-14.3 13.3-24.6 0-16.2-13.2-29.4-29.4-29.4h-21.4c-4.4 0-8 3.6-8 8v68.4c0 4.4 3.6 8 8 8s8-3.6 8-8v-17.6h13.3l14.7 22.1c1.5 2.3 4.1 3.6 6.7 3.6 1.5 0 3.1-.4 4.4-1.3 3.7-2.5 4.7-7.4 2.2-11.1L190.8 272zm-16-11.2h-13.4v-26.7h13.4c7.4 0 13.4 6 13.4 13.4-.1 7.3-6.1 13.3-13.4 13.3zM256 286.5h-26.2v-18.2h17.6c4.4 0 8-3.6 8-8s-3.6-8-8-8h-17.6v-18.2H256c4.4 0 8-3.6 8-8s-3.6-8-8-8h-34.2c-4.4 0-8 3.6-8 8v68.4c0 4.4 3.6 8 8 8H256c4.4 0 8-3.6 8-8s-3.6-8-8-8zM315.9 286.5h-26.2v-18.2h9.1c4.4 0 8-3.6 8-8s-3.6-8-8-8h-9.1v-18.2h26.2c4.4 0 8-3.6 8-8s-3.6-8-8-8h-34.2c-4.4 0-8 3.6-8 8v68.4c0 4.4 3.6 8 8 8h34.2c4.4 0 8-3.6 8-8s-3.6-8-8-8z"/></svg><svg fill="none" viewBox="0 0 10 18" id="ic-facebook" xmlns="http://www.w3.org/2000/svg"><path d="M2.966 17.795V9.843H.863V6.98h2.103V4.534C2.966 2.612 4.208.848 7.07.848c1.159 0 2.016.11 2.016.11l-.068 2.674s-.874-.008-1.827-.008c-1.032 0-1.198.476-1.198 1.265v2.09H9.1l-.135 2.864H5.993v7.952H2.966Z" fill="#555"/></svg><svg fill="none" viewBox="0 0 17 17" id="ic-instagram" xmlns="http://www.w3.org/2000/svg"><path d="M8.074 6.06A2.69 2.69 0 0 0 5.39 8.746a2.69 2.69 0 0 0 2.684 2.685 2.69 2.69 0 0 0 2.685-2.685 2.69 2.69 0 0 0-2.685-2.684Zm8.052 2.685c0-1.112.01-2.213-.053-3.323-.062-1.289-.356-2.433-1.299-3.375C13.83 1.102 12.688.81 11.4.748 10.288.686 9.186.696 8.076.696c-1.111 0-2.213-.01-3.323.052-1.288.062-2.432.356-3.375 1.299C.434 2.991.142 4.133.08 5.422.017 6.534.027 7.635.027 8.745c0 1.11-.01 2.213.052 3.323.063 1.289.357 2.433 1.3 3.375.944.945 2.086 1.237 3.374 1.3 1.112.062 2.214.052 3.323.052 1.112 0 2.214.01 3.323-.053 1.29-.062 2.433-.356 3.376-1.299.944-.944 1.236-2.086 1.298-3.375.065-1.11.053-2.211.053-3.323Zm-8.052 4.13a4.125 4.125 0 0 1-4.13-4.13 4.125 4.125 0 0 1 4.13-4.13 4.125 4.125 0 0 1 4.13 4.13 4.125 4.125 0 0 1-4.13 4.13Zm4.3-7.465a.963.963 0 1 1 0-1.93.963.963 0 1 1 0 1.93Z" fill="#555"/></svg><svg fill="none" viewBox="0 0 14 18" id="ic-pinterset" xmlns="http://www.w3.org/2000/svg"><path d="M.921 6.927c0-.733.128-1.425.38-2.071.242-.628.6-1.204 1.056-1.697a7.17 7.17 0 0 1 1.549-1.252 7.075 7.075 0 0 1 1.885-.795A8.07 8.07 0 0 1 7.85.847c1.073 0 2.07.227 2.997.68a5.67 5.67 0 0 1 2.252 1.972c.578.861.865 1.836.865 2.923 0 .652-.064 1.29-.195 1.913a7.793 7.793 0 0 1-.608 1.801 6.221 6.221 0 0 1-1.02 1.523 4.447 4.447 0 0 1-1.476 1.05c-.607.265-1.263.4-1.926.392-.46 0-.92-.108-1.374-.326-.454-.216-.78-.514-.976-.896-.069.265-.163.648-.288 1.148-.12.499-.202.82-.237.967a20.95 20.95 0 0 1-.21.722 4.88 4.88 0 0 1-.264.724l-.324.635c-.14.273-.297.536-.469.79-.17.246-.381.54-.633.88l-.14.05-.093-.102c-.101-1.067-.153-1.706-.153-1.917 0-.624.074-1.325.221-2.102.144-.777.372-1.754.678-2.928.306-1.174.482-1.864.529-2.069-.216-.44-.325-1.014-.325-1.72 0-.564.176-1.093.53-1.59.353-.495.8-.743 1.343-.743.415 0 .737.137.968.413.232.275.345.622.345 1.045 0 .448-.149 1.097-.448 1.946-.3.85-.449 1.483-.449 1.904 0 .426.153.783.458 1.063.301.28.7.432 1.11.423.373 0 .719-.085 1.04-.255.316-.166.59-.402.8-.69.457-.628.782-1.34.957-2.096.09-.397.16-.775.204-1.13.046-.357.066-.694.066-1.014 0-1.175-.373-2.09-1.114-2.746-.745-.655-1.715-.981-2.909-.981-1.357 0-2.492.439-3.4 1.32-.91.877-1.368 1.993-1.368 3.346 0 .299.045.587.131.866.084.278.175.5.274.663.098.161.19.318.274.463.085.145.13.249.13.311 0 .19-.05.438-.151.744-.105.306-.228.459-.377.459-.014 0-.073-.01-.174-.032a2.08 2.08 0 0 1-.922-.57 2.985 2.985 0 0 1-.621-.963 6.58 6.58 0 0 1-.332-1.1 4.6 4.6 0 0 1-.124-1.086Z" fill="#555"/></svg><svg fill="none" viewBox="0 0 18 15" id="ic-twitter" xmlns="http://www.w3.org/2000/svg"><path d="M17.774 2.178a6.964 6.964 0 0 1-2 .538A3.464 3.464 0 0 0 17.3.8a6.857 6.857 0 0 1-2.203.84A3.465 3.465 0 0 0 12.56.541a3.472 3.472 0 0 0-3.473 3.475c0 .269.033.538.086.796a9.87 9.87 0 0 1-7.161-3.635 3.448 3.448 0 0 0-.473 1.754c0 1.205.613 2.268 1.548 2.894a3.503 3.503 0 0 1-1.57-.442v.042A3.474 3.474 0 0 0 4.3 8.836a3.679 3.679 0 0 1-.915.118 4.62 4.62 0 0 1-.655-.053 3.48 3.48 0 0 0 3.246 2.41 6.96 6.96 0 0 1-4.312 1.484c-.29 0-.56-.01-.839-.043a9.834 9.834 0 0 0 5.334 1.559c6.388 0 9.883-5.292 9.883-9.885 0-.15 0-.301-.01-.452a7.48 7.48 0 0 0 1.74-1.796Z" fill="#555"/></svg><svg fill="none" viewBox="0 0 24 24" id="icon_shop" xmlns="http://www.w3.org/2000/svg"><path d="M21 6h-3A6 6 0 1 0 6 6H3a3 3 0 0 0-3 3v10a5.006 5.006 0 0 0 5 5h14a5.006 5.006 0 0 0 5-5V9a3 3 0 0 0-3-3Zm-9-4a4 4 0 0 1 4 4H8a4 4 0 0 1 4-4Zm10 17a3 3 0 0 1-3 3H5a3 3 0 0 1-3-3V9a1 1 0 0 1 1-1h3v2a1 1 0 1 0 2 0V8h8v2a1 1 0 0 0 2 0V8h3a1 1 0 0 1 1 1v10Z" fill="#555"/></svg><svg fill="none" viewBox="0 0 21 20" id="like" xmlns="http://www.w3.org/2000/svg"><path d="m10.777 19.156-8.24-8.25a5.838 5.838 0 0 1-.001-8.252 5.824 5.824 0 0 1 8.241 0 5.828 5.828 0 0 1 8.24 0 5.844 5.844 0 0 1 0 8.25l-8.24 8.252ZM6.657 2.89a3.882 3.882 0 0 0-3.59 2.401 3.894 3.894 0 0 0 .842 4.24l6.868 6.875 6.868-6.876a3.891 3.891 0 0 0-3.408-6.608 3.882 3.882 0 0 0-2.635 1.817l-.825 1.334-.826-1.334a3.802 3.802 0 0 0-3.295-1.847V2.89Z" fill="#757575"/></svg><svg fill="none" viewBox="0 0 22 24" id="notification" xmlns="http://www.w3.org/2000/svg"><path clip-rule="evenodd" d="M11 18.335c6.11 0 8.935-.784 9.208-3.93 0-3.143-1.97-2.94-1.97-6.798 0-3.012-2.856-6.44-7.238-6.44-4.382 0-7.238 3.428-7.238 6.44 0 3.857-1.97 3.655-1.97 6.799.274 3.157 3.1 3.929 9.208 3.929Z" stroke="#555" stroke-width="2" stroke-linecap="round" stroke-linejoin="round"/><path d="M13.588 21.596c-1.478 1.64-3.783 1.66-5.275 0" stroke="#555" stroke-width="2" stroke-linecap="round" stroke-linejoin="round"/></svg><svg fill="none" viewBox="0 0 60 60" id="present" xmlns="http://www.w3.org/2000/svg"><mask id="na" maskUnits="userSpaceOnUse" x="0" y="0" width="60" height="60" fill="#000"><path fill="#fff" d="M0 0h60v60H0z"/><path d="M7.425 18.725a2.892 2.892 0 0 0-1.592 2.573v6.767c0 1.068.866 1.933 1.934 1.933v26.1a2.9 2.9 0 0 0 2.9 2.9h38.666a2.9 2.9 0 0 0 2.9-2.9v-26.1a1.933 1.933 0 0 0 1.934-1.933v-6.767a2.892 2.892 0 0 0-1.591-2.573c4.021-2.578 6.218-7.391 6.341-7.667a.967.967 0 0 0-.884-1.36h-3.866V5.832a.967.967 0 0 0-1.587-.743l-3.227 2.695a15.703 15.703 0 0 0-6.4-6.316 3.76 3.76 0 0 0-2.014-.463C34.464 1.41 31.363 6.643 30 10.182c-1.369-3.535-4.47-8.754-10.939-9.158-.7-.04-1.4.119-2.014.458a15.71 15.71 0 0 0-6.393 6.301L7.42 5.088a.967.967 0 0 0-1.586.744v3.866H1.967a.967.967 0 0 0-.884 1.36c.123.276 2.32 5.089 6.342 7.667Zm15.808 1.607v7.733H7.768v-6.767c0-.533.433-.966.966-.966h14.5Zm1.866-5.688a13.831 13.831 0 0 1-4.465-7.434c3.054 1.338 4.65 4.981 5.228 6.603a4.853 4.853 0 0 0-.763.83Zm1.035 2.788a2.9 2.9 0 0 1 2.9-2.9h1.933a2.9 2.9 0 0 1 2.9 2.9v.966h-7.733v-.966Zm8.7 10.633h-9.667v-7.733h9.666v7.733Zm-.696-14.252c.58-1.622 2.175-5.265 5.228-6.603a13.823 13.823 0 0 1-4.465 7.434 4.853 4.853 0 0 0-.763-.83ZM9.7 56.098v-26.1h15.467v27.067h-14.5a.967.967 0 0 1-.967-.967Zm17.4.967V29.998h5.8v27.067h-5.8Zm23.2-.967a.967.967 0 0 1-.966.967h-14.5V29.998H50.3v26.1Zm.967-35.766c.534 0 .966.433.966.966v6.767H36.767v-7.733h14.5Zm1.933-8.7h3.233c-1.344 2.313-4.519 6.766-9.033 6.766h-2.165a20.703 20.703 0 0 0 4.284-4.785 4.801 4.801 0 0 0 .593-3.944l2.121-1.77v2.766c0 .534.433.967.967.967Zm-12.14-8.7c.34-.015.678.066.974.234 1.425.773 4.88 2.982 6.18 6.877a2.893 2.893 0 0 1-.313 2.514c-1.08 1.652-3.331 4.576-6.369 5.841H35.8v-.966c0-.322-.032-.643-.096-.958 3.963-2.803 5.337-7.683 5.751-9.729a1.43 1.43 0 0 0-.435-1.341 1.455 1.455 0 0 0-1.397-.336c-4.204 1.184-6.33 5.466-7.195 7.782a4.776 4.776 0 0 0-1.228-.227c.714-2.673 3.144-9.268 9.86-9.691Zm-29.273 7.125c1.296-3.89 4.753-6.1 6.178-6.87a1.85 1.85 0 0 1 .976-.234c6.71.42 9.14 6.995 9.86 9.667a4.77 4.77 0 0 0-1.227.227c-.864-2.32-2.991-6.598-7.195-7.782a1.463 1.463 0 0 0-1.397.336c-.37.34-.534.85-.432 1.341.409 2.049 1.784 6.931 5.747 9.732a4.809 4.809 0 0 0-.097.958v.966h-5.732c-3.037-1.263-5.29-4.184-6.369-5.835a2.883 2.883 0 0 1-.312-2.506ZM6.8 11.632a.967.967 0 0 0 .967-.967v-2.77l2.126 1.77a4.8 4.8 0 0 0 .59 3.955 20.669 20.669 0 0 0 4.28 4.778H12.6c-4.502 0-7.681-4.452-9.03-6.766H6.8Z"/></mask><path d="M7.425 18.725a2.892 2.892 0 0 0-1.592 2.573v6.767c0 1.068.866 1.933 1.934 1.933v26.1a2.9 2.9 0 0 0 2.9 2.9h38.666a2.9 2.9 0 0 0 2.9-2.9v-26.1a1.933 1.933 0 0 0 1.934-1.933v-6.767a2.892 2.892 0 0 0-1.591-2.573c4.021-2.578 6.218-7.391 6.341-7.667a.967.967 0 0 0-.884-1.36h-3.866V5.832a.967.967 0 0 0-1.587-.743l-3.227 2.695a15.703 15.703 0 0 0-6.4-6.316 3.76 3.76 0 0 0-2.014-.463C34.464 1.41 31.363 6.643 30 10.182c-1.369-3.535-4.47-8.754-10.939-9.158-.7-.04-1.4.119-2.014.458a15.71 15.71 0 0 0-6.393 6.301L7.42 5.088a.967.967 0 0 0-1.586.744v3.866H1.967a.967.967 0 0 0-.884 1.36c.123.276 2.32 5.089 6.342 7.667Zm15.808 1.607v7.733H7.768v-6.767c0-.533.433-.966.966-.966h14.5Zm1.866-5.688a13.831 13.831 0 0 1-4.465-7.434c3.054 1.338 4.65 4.981 5.228 6.603a4.853 4.853 0 0 0-.763.83Zm1.035 2.788a2.9 2.9 0 0 1 2.9-2.9h1.933a2.9 2.9 0 0 1 2.9 2.9v.966h-7.733v-.966Zm8.7 10.633h-9.667v-7.733h9.666v7.733Zm-.696-14.252c.58-1.622 2.175-5.265 5.228-6.603a13.823 13.823 0 0 1-4.465 7.434 4.853 4.853 0 0 0-.763-.83ZM9.7 56.098v-26.1h15.467v27.067h-14.5a.967.967 0 0 1-.967-.967Zm17.4.967V29.998h5.8v27.067h-5.8Zm23.2-.967a.967.967 0 0 1-.966.967h-14.5V29.998H50.3v26.1Zm.967-35.766c.534 0 .966.433.966.966v6.767H36.767v-7.733h14.5Zm1.933-8.7h3.233c-1.344 2.313-4.519 6.766-9.033 6.766h-2.165a20.703 20.703 0 0 0 4.284-4.785 4.801 4.801 0 0 0 .593-3.944l2.121-1.77v2.766c0 .534.433.967.967.967Zm-12.14-8.7c.34-.015.678.066.974.234 1.425.773 4.88 2.982 6.18 6.877a2.893 2.893 0 0 1-.313 2.514c-1.08 1.652-3.331 4.576-6.369 5.841H35.8v-.966c0-.322-.032-.643-.096-.958 3.963-2.803 5.337-7.683 5.751-9.729a1.43 1.43 0 0 0-.435-1.341 1.455 1.455 0 0 0-1.397-.336c-4.204 1.184-6.33 5.466-7.195 7.782a4.776 4.776 0 0 0-1.228-.227c.714-2.673 3.144-9.268 9.86-9.691Zm-29.273 7.125c1.296-3.89 4.753-6.1 6.178-6.87a1.85 1.85 0 0 1 .976-.234c6.71.42 9.14 6.995 9.86 9.667a4.77 4.77 0 0 0-1.227.227c-.864-2.32-2.991-6.598-7.195-7.782a1.463 1.463 0 0 0-1.397.336c-.37.34-.534.85-.432 1.341.409 2.049 1.784 6.931 5.747 9.732a4.809 4.809 0 0 0-.097.958v.966h-5.732c-3.037-1.263-5.29-4.184-6.369-5.835a2.883 2.883 0 0 1-.312-2.506ZM6.8 11.632a.967.967 0 0 0 .967-.967v-2.77l2.126 1.77a4.8 4.8 0 0 0 .59 3.955 20.669 20.669 0 0 0 4.28 4.778H12.6c-4.502 0-7.681-4.452-9.03-6.766H6.8Z" fill="#7AC751"/><path d="M7.425 18.725a2.892 2.892 0 0 0-1.592 2.573v6.767c0 1.068.866 1.933 1.934 1.933v26.1a2.9 2.9 0 0 0 2.9 2.9h38.666a2.9 2.9 0 0 0 2.9-2.9v-26.1a1.933 1.933 0 0 0 1.934-1.933v-6.767a2.892 2.892 0 0 0-1.591-2.573c4.021-2.578 6.218-7.391 6.341-7.667a.967.967 0 0 0-.884-1.36h-3.866V5.832a.967.967 0 0 0-1.587-.743l-3.227 2.695a15.703 15.703 0 0 0-6.4-6.316 3.76 3.76 0 0 0-2.014-.463C34.464 1.41 31.363 6.643 30 10.182c-1.369-3.535-4.47-8.754-10.939-9.158-.7-.04-1.4.119-2.014.458a15.71 15.71 0 0 0-6.393 6.301L7.42 5.088a.967.967 0 0 0-1.586.744v3.866H1.967a.967.967 0 0 0-.884 1.36c.123.276 2.32 5.089 6.342 7.667Zm15.808 1.607v7.733H7.768v-6.767c0-.533.433-.966.966-.966h14.5Zm1.866-5.688a13.831 13.831 0 0 1-4.465-7.434c3.054 1.338 4.65 4.981 5.228 6.603a4.853 4.853 0 0 0-.763.83Zm1.035 2.788a2.9 2.9 0 0 1 2.9-2.9h1.933a2.9 2.9 0 0 1 2.9 2.9v.966h-7.733v-.966Zm8.7 10.633h-9.667v-7.733h9.666v7.733Zm-.696-14.252c.58-1.622 2.175-5.265 5.228-6.603a13.823 13.823 0 0 1-4.465 7.434 4.853 4.853 0 0 0-.763-.83ZM9.7 56.098v-26.1h15.467v27.067h-14.5a.967.967 0 0 1-.967-.967Zm17.4.967V29.998h5.8v27.067h-5.8Zm23.2-.967a.967.967 0 0 1-.966.967h-14.5V29.998H50.3v26.1Zm.967-35.766c.534 0 .966.433.966.966v6.767H36.767v-7.733h14.5Zm1.933-8.7h3.233c-1.344 2.313-4.519 6.766-9.033 6.766h-2.165a20.703 20.703 0 0 0 4.284-4.785 4.801 4.801 0 0 0 .593-3.944l2.121-1.77v2.766c0 .534.433.967.967.967Zm-12.14-8.7c.34-.015.678.066.974.234 1.425.773 4.88 2.982 6.18 6.877a2.893 2.893 0 0 1-.313 2.514c-1.08 1.652-3.331 4.576-6.369 5.841H35.8v-.966c0-.322-.032-.643-.096-.958 3.963-2.803 5.337-7.683 5.751-9.729a1.43 1.43 0 0 0-.435-1.341 1.455 1.455 0 0 0-1.397-.336c-4.204 1.184-6.33 5.466-7.195 7.782a4.776 4.776 0 0 0-1.228-.227c.714-2.673 3.144-9.268 9.86-9.691Zm-29.273 7.125c1.296-3.89 4.753-6.1 6.178-6.87a1.85 1.85 0 0 1 .976-.234c6.71.42 9.14 6.995 9.86 9.667a4.77 4.77 0 0 0-1.227.227c-.864-2.32-2.991-6.598-7.195-7.782a1.463 1.463 0 0 0-1.397.336c-.37.34-.534.85-.432 1.341.409 2.049 1.784 6.931 5.747 9.732a4.809 4.809 0 0 0-.097.958v.966h-5.732c-3.037-1.263-5.29-4.184-6.369-5.835a2.883 2.883 0 0 1-.312-2.506ZM6.8 11.632a.967.967 0 0 0 .967-.967v-2.77l2.126 1.77a4.8 4.8 0 0 0 .59 3.955 20.669 20.669 0 0 0 4.28 4.778H12.6c-4.502 0-7.681-4.452-9.03-6.766H6.8Z" stroke="#7AC751" stroke-width=".5" mask="url(#na)"/><path d="M12.6 31.806c-.603 0-1.092.489-1.092 1.092v1.933a1.092 1.092 0 1 0 2.184 0v-1.933c0-.603-.489-1.092-1.092-1.092ZM12.6 37.606c-.603 0-1.092.489-1.092 1.092v15.466a1.092 1.092 0 1 0 2.184 0V38.698c0-.603-.489-1.092-1.092-1.092ZM47.4 35.923c.603 0 1.092-.49 1.092-1.092v-1.933a1.092 1.092 0 0 0-2.183 0v1.933c0 .603.488 1.092 1.091 1.092ZM47.4 55.256c.603 0 1.092-.489 1.092-1.092V38.698a1.092 1.092 0 0 0-2.183 0v15.466c0 .603.488 1.092 1.091 1.092Z" fill="#7AC751" stroke="#7AC751" stroke-width=".25"/></svg><svg fill="none" viewBox="0 0 18 18" id="refresh" xmlns="http://www.w3.org/2000/svg"><path d="M2.865 3.437a7.993 7.993 0 0 1 2.586-1.86C8.58.166 12.39.893 14.758 3.598l1.635-1.401c.091-.078.237-.006.246.116l.407 5.488c.005.091-.08.163-.166.142l-5.35-1.248c-.122-.03-.167-.183-.077-.26l1.633-1.4a5.794 5.794 0 0 0-6.11-1.676 5.72 5.72 0 0 0-2.22 1.31A5.783 5.783 0 0 0 3.07 7.781a1.102 1.102 0 0 1-1.336.87A1.113 1.113 0 0 1 .9 7.348a7.911 7.911 0 0 1 1.964-3.91Zm11.455 7.037a5.712 5.712 0 0 1-1.686 3.11 5.757 5.757 0 0 1-2.22 1.311c-2.127.68-4.548.098-6.11-1.677l1.633-1.398c.09-.078.042-.233-.077-.26L.507 10.307c-.09-.019-.174.053-.165.142l.404 5.485c.011.125.154.194.245.116l1.636-1.401c2.364 2.707 6.176 3.438 9.306 2.022a8.072 8.072 0 0 0 2.587-1.86 7.87 7.87 0 0 0 1.966-3.909 1.113 1.113 0 0 0-.831-1.302 1.105 1.105 0 0 0-1.335.873Z" fill="#757575" stroke="#fff" stroke-width=".3"/></svg><svg fill="none" viewBox="0 0 16 16" id="search" xmlns="http://www.w3.org/2000/svg"><path d="M12.7 11.3c.9-1.2 1.4-2.6 1.4-4.2 0-3.9-3.1-7.1-7-7.1S0 3.2 0 7.1c0 3.9 3.2 7.1 7.1 7.1 1.6 0 3.1-.5 4.2-1.4l3 3c.2.2.5.3.7.3.2 0 .5-.1.7-.3.4-.4.4-1 0-1.4l-3-3.1Zm-5.6.8c-2.8 0-5.1-2.2-5.1-5S4.3 2 7.1 2s5.1 2.3 5.1 5.1-2.3 5-5.1 5Z" fill="#fff"/></svg><svg fill="none" viewBox="0 0 20 21" id="shopping_bag" xmlns="http://www.w3.org/2000/svg"><path d="M18.68 16.167H17.06v-1.62a.81.81 0 0 0-1.382-.574.811.811 0 0 0-.237.573v1.62h-1.618a.809.809 0 0 0-.573 1.384.809.809 0 0 0 .573.238h1.618v1.62a.81.81 0 0 0 1.382.573.81.81 0 0 0 .237-.573v-1.62h1.619a.809.809 0 0 0 .572-1.384.809.809 0 0 0-.572-.237Z" fill="#757575"/><path d="M17.061 5.633h-2.428c0-1.29-.512-2.526-1.422-3.438a4.853 4.853 0 0 0-6.868 0 4.865 4.865 0 0 0-1.422 3.438H2.493a2.427 2.427 0 0 0-2.428 2.43v8.104A4.059 4.059 0 0 0 1.25 19.03a4.05 4.05 0 0 0 2.86 1.188h7.285a.809.809 0 0 0 .809-.81.81.81 0 0 0-.81-.81H4.112a2.427 2.427 0 0 1-2.428-2.431V8.064a.81.81 0 0 1 .81-.81H4.92v1.62a.81.81 0 0 0 1.381.573.81.81 0 0 0 .238-.573v-1.62h6.474v1.62a.81.81 0 0 0 1.382.573.81.81 0 0 0 .237-.573v-1.62h2.428a.809.809 0 0 1 .81.81v4.051a.81.81 0 0 0 1.381.573.81.81 0 0 0 .237-.573V8.064a2.432 2.432 0 0 0-2.428-2.431Zm-10.521 0a3.243 3.243 0 0 1 3.237-3.241 3.235 3.235 0 0 1 3.237 3.24H6.54Z" fill="#757575"/></svg><svg fill="none" viewBox="0 0 11 11" id="star" xmlns="http://www.w3.org/2000/svg"><path d="m3.626 3.858.307-.043.143-.276 1.285-2.477.002-.003h.001a.06.06 0 0 1 .028-.007c.015 0 .026.004.03.007l.002.001.002.003L6.711 3.54l.142.276.308.043 2.875.398.008.001-2.065 1.914-.241.223.058.324.49 2.707a.058.058 0 0 1-.025.008c-.007.001-.016 0-.027-.005L5.662 8.142l-.269-.134-.268.134-2.572 1.286h-.002a.045.045 0 0 1-.025.006.056.056 0 0 1-.025-.008l.49-2.708.058-.324-.24-.223L.742 4.257h.008l2.875-.4Z" fill="#fff" stroke="#7AC751" stroke-width="1.2"/></svg><svg fill="none" viewBox="0 0 58 58" id="support" xmlns="http://www.w3.org/2000/svg"><path d="M49.96 23.975h-.143v-3.517C49.817 9.159 40.658 0 29.36 0 18.061 0 8.901 9.16 8.901 20.458v3.517h-.86c-3.16 0-5.6 2.8-5.6 6.03v8.973a5.67 5.67 0 0 0 5.6 5.814h5.31a1.364 1.364 0 0 0 1.293-1.508V25.699c0-.861-.502-1.723-1.292-1.723h-1.58v-3.517c0-9.713 7.875-17.587 17.587-17.587 9.713 0 17.587 7.874 17.587 17.587v3.517h-1.58c-.789 0-1.291.861-1.291 1.723v17.587a1.364 1.364 0 0 0 1.292 1.507h1.65l-.143.215a11.341 11.341 0 0 1-9.116 4.522 7.106 7.106 0 0 0-14.07 1.364A7.178 7.178 0 0 0 30.867 58a7.394 7.394 0 0 0 5.168-2.225 6.318 6.318 0 0 0 1.723-3.446 14.213 14.213 0 0 0 11.413-5.67l1.364-2.01c3.087-.216 5.025-2.154 5.025-4.954v-8.973c0-3.086-2.297-6.747-5.6-6.747ZM11.774 41.921H8.04a2.8 2.8 0 0 1-2.728-2.943v-8.973c0-1.651 1.149-3.159 2.728-3.159h3.733v15.075Zm22.18 11.844a4.235 4.235 0 0 1-3.086 1.364 4.379 4.379 0 0 1-4.307-4.235 4.235 4.235 0 1 1 8.47-.004v.004a3.805 3.805 0 0 1-1.077 2.87Zm18.735-14.07c0 1.939-1.866 2.226-2.727 2.226h-3.015V26.846h3.015c1.579 0 2.727 2.226 2.727 3.877v8.973Z" fill="#7AC751"/></svg><svg fill="none" viewBox="0 0 14 14" id="tag" xmlns="http://www.w3.org/2000/svg"><path fill-rule="evenodd" clip-rule="evenodd" d="M6.182.465c.519 0 1.016.208 1.383.58l5.576 5.644a1.98 1.98 0 0 1 .573 1.4 1.998 1.998 0 0 1-.573 1.4l-3.66 3.705a1.953 1.953 0 0 1-1.383.58 1.935 1.935 0 0 1-1.383-.58L1.138 7.549a1.98 1.98 0 0 1-.572-1.4V2.445c0-.525.206-1.028.572-1.4.367-.37.864-.579 1.383-.579h3.661Zm0 1.33H2.521a.636.636 0 0 0-.453.19.652.652 0 0 0-.187.459V6.15c0 .171.067.336.187.458l5.577 5.645c.25.253.656.253.906 0l3.66-3.706a.649.649 0 0 0 .14-.706.649.649 0 0 0-.14-.21L6.636 1.985a.64.64 0 0 0-.454-.19h.001ZM4.51 3.128c.349 0 .683.14.93.39a1.34 1.34 0 0 1 0 1.882 1.307 1.307 0 0 1-1.86 0 1.34 1.34 0 0 1 0-1.882c.247-.25.582-.39.93-.39Z" fill="#7AC751"/></svg><svg fill="none" viewBox="0 0 58 58" id="wallet" xmlns="http://www.w3.org/2000/svg"><g clip-path="url(#ua)" fill="#7AC751"><path d="M55.364 29.243v-8.151c0-2.765-2.144-5.013-4.853-5.23L42.94 2.638a5.21 5.21 0 0 0-3.19-2.46 5.18 5.18 0 0 0-3.968.531L9.831 15.82H5.274A5.278 5.278 0 0 0 0 21.09v31.636A5.278 5.278 0 0 0 5.274 58H50.09a5.278 5.278 0 0 0 5.273-5.273v-8.151C56.894 44.03 58 42.58 58 40.863v-7.91c0-1.715-1.105-3.165-2.636-3.71ZM47.447 15.82H35.958l8.617-5.017 2.872 5.017Zm-4.182-7.305L30.72 15.82h-5.204l16.45-9.577 1.3 2.272ZM37.11 2.99a2.55 2.55 0 0 1 1.958-.264c.674.18 1.235.615 1.584 1.224l.002.005-20.379 11.865h-5.204l22.04-12.83Zm15.617 49.738a2.64 2.64 0 0 1-2.636 2.637H5.274a2.64 2.64 0 0 1-2.637-2.637V21.092a2.64 2.64 0 0 1 2.637-2.637H50.09a2.64 2.64 0 0 1 2.636 2.637V29h-7.909c-4.36 0-7.909 3.548-7.909 7.91 0 4.36 3.548 7.908 7.91 7.908h7.908v7.91Zm2.637-11.863a1.32 1.32 0 0 1-1.318 1.318h-9.228a5.278 5.278 0 0 1-5.272-5.273 5.278 5.278 0 0 1 5.272-5.272h9.228c.727 0 1.318.59 1.318 1.318v7.909Z"/><path d="M44.818 34.273a2.64 2.64 0 0 0-2.636 2.636 2.64 2.64 0 0 0 2.636 2.637 2.64 2.64 0 0 0 2.636-2.636 2.64 2.64 0 0 0-2.636-2.637Z"/></g><defs><clipPath id="ua"><path fill="#fff" d="M0 0h58v58H0z"/></clipPath></defs></svg></svg>